<svg xmlns="http://www.w3.org/2000/svg" width="116" height="88" viewBox="0 0 116 88" fill="none">
  <path d="M53.9233 1.51653C54.3327 1.51653 54.6646 1.26826 54.6646 0.962C54.6646 0.655737 54.3327 0.407471 53.9233 0.407471C53.514 0.407471 53.1821 0.655737 53.1821 0.962C53.1821 1.26826 53.514 1.51653 53.9233 1.51653Z" fill="#8643DC"/>
  <path d="M50.2173 4.28924C50.6267 4.28924 50.9586 4.04097 50.9586 3.73471C50.9586 3.42844 50.6267 3.18018 50.2173 3.18018C49.808 3.18018 49.4761 3.42844 49.4761 3.73471C49.4761 4.04097 49.808 4.28924 50.2173 4.28924Z" fill="#8643DC"/>
  <path d="M46.3259 7.06194C46.7353 7.06194 47.0671 6.81367 47.0671 6.50741C47.0671 6.20115 46.7353 5.95288 46.3259 5.95288C45.9165 5.95288 45.5846 6.20115 45.5846 6.50741C45.5846 6.81367 45.9165 7.06194 46.3259 7.06194Z" fill="#8643DC"/>
  <path d="M42.6198 9.83465C43.0292 9.83465 43.361 9.58638 43.361 9.28012C43.361 8.97385 43.0292 8.72559 42.6198 8.72559C42.2104 8.72559 41.8786 8.97385 41.8786 9.28012C41.8786 9.58638 42.2104 9.83465 42.6198 9.83465Z" fill="#8643DC"/>
  <path d="M38.7284 12.746C39.1377 12.746 39.4696 12.4978 39.4696 12.1915C39.4696 11.8852 39.1377 11.637 38.7284 11.637C38.319 11.637 37.9872 11.8852 37.9872 12.1915C37.9872 12.4978 38.319 12.746 38.7284 12.746Z" fill="#8643DC"/>
  <path d="M35.0224 15.5187C35.4317 15.5187 35.7636 15.2705 35.7636 14.9642C35.7636 14.6579 35.4317 14.4097 35.0224 14.4097C34.613 14.4097 34.2812 14.6579 34.2812 14.9642C34.2812 15.2705 34.613 15.5187 35.0224 15.5187Z" fill="#8643DC"/>
  <path d="M31.1309 18.2914C31.5403 18.2914 31.8721 18.0432 31.8721 17.7369C31.8721 17.4306 31.5403 17.1824 31.1309 17.1824C30.7215 17.1824 30.3897 17.4306 30.3897 17.7369C30.3897 18.0432 30.7215 18.2914 31.1309 18.2914Z" fill="#8643DC"/>
  <path d="M27.4248 21.0639C27.8342 21.0639 28.166 20.8156 28.166 20.5094C28.166 20.2031 27.8342 19.9548 27.4248 19.9548C27.0154 19.9548 26.6836 20.2031 26.6836 20.5094C26.6836 20.8156 27.0154 21.0639 27.4248 21.0639Z" fill="#8643DC"/>
  <path d="M23.5335 23.8366C23.9429 23.8366 24.2747 23.5883 24.2747 23.2821C24.2747 22.9758 23.9429 22.7275 23.5335 22.7275C23.1242 22.7275 22.7923 22.9758 22.7923 23.2821C22.7923 23.5883 23.1242 23.8366 23.5335 23.8366Z" fill="#8643DC"/>
  <path d="M19.8274 26.6093C20.2368 26.6093 20.5686 26.361 20.5686 26.0548C20.5686 25.7485 20.2368 25.5002 19.8274 25.5002C19.4181 25.5002 19.0862 25.7485 19.0862 26.0548C19.0862 26.361 19.4181 26.6093 19.8274 26.6093Z" fill="#8643DC"/>
  <path d="M15.9362 29.382C16.3455 29.382 16.6774 29.1337 16.6774 28.8275C16.6774 28.5212 16.3455 28.2729 15.9362 28.2729C15.5268 28.2729 15.195 28.5212 15.195 28.8275C15.195 29.1337 15.5268 29.382 15.9362 29.382Z" fill="#8643DC"/>
  <path d="M12.2301 32.1547C12.6394 32.1547 12.9713 31.9064 12.9713 31.6002C12.9713 31.2939 12.6394 31.0457 12.2301 31.0457C11.8207 31.0457 11.4889 31.2939 11.4889 31.6002C11.4889 31.9064 11.8207 32.1547 12.2301 32.1547Z" fill="#8643DC"/>
  <path d="M8.33863 34.9274C8.74799 34.9274 9.07983 34.6792 9.07983 34.3729C9.07983 34.0666 8.74799 33.8184 8.33863 33.8184C7.92926 33.8184 7.59737 34.0666 7.59737 34.3729C7.59737 34.6792 7.92926 34.9274 8.33863 34.9274Z" fill="#8643DC"/>
  <path d="M4.63265 37.7001C5.04201 37.7001 5.37385 37.4519 5.37385 37.1456C5.37385 36.8393 5.04201 36.5911 4.63265 36.5911C4.22329 36.5911 3.89139 36.8393 3.89139 37.1456C3.89139 37.4519 4.22329 37.7001 4.63265 37.7001Z" fill="#8643DC"/>
  <path d="M0.741203 40.4728C1.15056 40.4728 1.48241 40.2246 1.48241 39.9183C1.48241 39.612 1.15056 39.3638 0.741203 39.3638C0.331842 39.3638 0 39.612 0 39.9183C0 40.2246 0.331842 40.4728 0.741203 40.4728Z" fill="#8643DC"/>
  <path d="M58.3706 4.84368C58.7799 4.84368 59.1118 4.59541 59.1118 4.28915C59.1118 3.98289 58.7799 3.73462 58.3706 3.73462C57.9612 3.73462 57.6293 3.98289 57.6293 4.28915C57.6293 4.59541 57.9612 4.84368 58.3706 4.84368Z" fill="#8643DC"/>
  <path d="M54.6645 7.61638C55.0739 7.61638 55.4057 7.36812 55.4057 7.06185C55.4057 6.75559 55.0739 6.50732 54.6645 6.50732C54.2551 6.50732 53.9232 6.75559 53.9232 7.06185C53.9232 7.36812 54.2551 7.61638 54.6645 7.61638Z" fill="#8643DC"/>
  <path d="M50.773 10.5278C51.1824 10.5278 51.5143 10.2795 51.5143 9.97323C51.5143 9.66697 51.1824 9.4187 50.773 9.4187C50.3637 9.4187 50.0318 9.66697 50.0318 9.97323C50.0318 10.2795 50.3637 10.5278 50.773 10.5278Z" fill="#8643DC"/>
  <path d="M46.8818 13.3005C47.2911 13.3005 47.623 13.0522 47.623 12.7459C47.623 12.4397 47.2911 12.1914 46.8818 12.1914C46.4724 12.1914 46.1406 12.4397 46.1406 12.7459C46.1406 13.0522 46.4724 13.3005 46.8818 13.3005Z" fill="#8643DC"/>
  <path d="M43.1757 16.0732C43.585 16.0732 43.9169 15.8249 43.9169 15.5186C43.9169 15.2124 43.585 14.9641 43.1757 14.9641C42.7663 14.9641 42.4345 15.2124 42.4345 15.5186C42.4345 15.8249 42.7663 16.0732 43.1757 16.0732Z" fill="#8643DC"/>
  <path d="M39.2844 18.8459C39.6938 18.8459 40.0256 18.5976 40.0256 18.2913C40.0256 17.9851 39.6938 17.7368 39.2844 17.7368C38.875 17.7368 38.5432 17.9851 38.5432 18.2913C38.5432 18.5976 38.875 18.8459 39.2844 18.8459Z" fill="#8643DC"/>
  <path d="M35.5783 21.6186C35.9877 21.6186 36.3195 21.3703 36.3195 21.0641C36.3195 20.7578 35.9877 20.5095 35.5783 20.5095C35.169 20.5095 34.8371 20.7578 34.8371 21.0641C34.8371 21.3703 35.169 21.6186 35.5783 21.6186Z" fill="#8643DC"/>
  <path d="M31.6868 24.3913C32.0962 24.3913 32.4281 24.143 32.4281 23.8368C32.4281 23.5305 32.0962 23.2822 31.6868 23.2822C31.2775 23.2822 30.9456 23.5305 30.9456 23.8368C30.9456 24.143 31.2775 24.3913 31.6868 24.3913Z" fill="#8643DC"/>
  <path d="M27.9808 27.1637C28.3902 27.1637 28.7221 26.9155 28.7221 26.6092C28.7221 26.303 28.3902 26.0547 27.9808 26.0547C27.5715 26.0547 27.2396 26.303 27.2396 26.6092C27.2396 26.9155 27.5715 27.1637 27.9808 27.1637Z" fill="#8643DC"/>
  <path d="M24.0894 29.9365C24.4988 29.9365 24.8306 29.6882 24.8306 29.3819C24.8306 29.0757 24.4988 28.8274 24.0894 28.8274C23.68 28.8274 23.3481 29.0757 23.3481 29.3819C23.3481 29.6882 23.68 29.9365 24.0894 29.9365Z" fill="#8643DC"/>
  <path d="M20.3833 32.7092C20.7927 32.7092 21.1245 32.4609 21.1245 32.1546C21.1245 31.8484 20.7927 31.6001 20.3833 31.6001C19.9739 31.6001 19.642 31.8484 19.642 32.1546C19.642 32.4609 19.9739 32.7092 20.3833 32.7092Z" fill="#8643DC"/>
  <path d="M16.4919 35.4819C16.9012 35.4819 17.2331 35.2336 17.2331 34.9273C17.2331 34.6211 16.9012 34.3728 16.4919 34.3728C16.0825 34.3728 15.7507 34.6211 15.7507 34.9273C15.7507 35.2336 16.0825 35.4819 16.4919 35.4819Z" fill="#8643DC"/>
  <path d="M12.7859 38.2546C13.1952 38.2546 13.5271 38.0063 13.5271 37.7C13.5271 37.3938 13.1952 37.1455 12.7859 37.1455C12.3765 37.1455 12.0447 37.3938 12.0447 37.7C12.0447 38.0063 12.3765 38.2546 12.7859 38.2546Z" fill="#8643DC"/>
  <path d="M8.8945 41.0273C9.30386 41.0273 9.6357 40.779 9.6357 40.4727C9.6357 40.1665 9.30386 39.9182 8.8945 39.9182C8.48514 39.9182 8.15329 40.1665 8.15329 40.4727C8.15329 40.779 8.48514 41.0273 8.8945 41.0273Z" fill="#8643DC"/>
  <path d="M5.18841 43.8C5.59777 43.8 5.92961 43.5517 5.92961 43.2454C5.92961 42.9392 5.59777 42.6909 5.18841 42.6909C4.77905 42.6909 4.4472 42.9392 4.4472 43.2454C4.4472 43.5517 4.77905 43.8 5.18841 43.8Z" fill="#8643DC"/>
  <path d="M62.818 8.3095C63.2274 8.3095 63.5592 8.06123 63.5592 7.75497C63.5592 7.44871 63.2274 7.20044 62.818 7.20044C62.4087 7.20044 62.0768 7.44871 62.0768 7.75497C62.0768 8.06123 62.4087 8.3095 62.818 8.3095Z" fill="#8643DC"/>
  <path d="M58.9267 11.0822C59.336 11.0822 59.6679 10.8339 59.6679 10.5277C59.6679 10.2214 59.336 9.97314 58.9267 9.97314C58.5173 9.97314 58.1855 10.2214 58.1855 10.5277C58.1855 10.8339 58.5173 11.0822 58.9267 11.0822Z" fill="#8643DC"/>
  <path d="M55.2206 13.8549C55.6299 13.8549 55.9618 13.6066 55.9618 13.3004C55.9618 12.9941 55.6299 12.7458 55.2206 12.7458C54.8112 12.7458 54.4794 12.9941 54.4794 13.3004C54.4794 13.6066 54.8112 13.8549 55.2206 13.8549Z" fill="#8643DC"/>
  <path d="M51.3291 16.6276C51.7384 16.6276 52.0703 16.3793 52.0703 16.0731C52.0703 15.7668 51.7384 15.5186 51.3291 15.5186C50.9197 15.5186 50.5879 15.7668 50.5879 16.0731C50.5879 16.3793 50.9197 16.6276 51.3291 16.6276Z" fill="#8643DC"/>
  <path d="M47.6231 19.4003C48.0324 19.4003 48.3643 19.1521 48.3643 18.8458C48.3643 18.5395 48.0324 18.2913 47.6231 18.2913C47.2137 18.2913 46.8819 18.5395 46.8819 18.8458C46.8819 19.1521 47.2137 19.4003 47.6231 19.4003Z" fill="#8643DC"/>
  <path d="M43.7317 22.173C44.1411 22.173 44.473 21.9248 44.473 21.6185C44.473 21.3122 44.1411 21.064 43.7317 21.064C43.3223 21.064 42.9905 21.3122 42.9905 21.6185C42.9905 21.9248 43.3223 22.173 43.7317 22.173Z" fill="#8643DC"/>
  <path d="M40.0256 24.9457C40.435 24.9457 40.7669 24.6975 40.7669 24.3912C40.7669 24.0849 40.435 23.8367 40.0256 23.8367C39.6163 23.8367 39.2844 24.0849 39.2844 24.3912C39.2844 24.6975 39.6163 24.9457 40.0256 24.9457Z" fill="#8643DC"/>
  <path d="M36.1344 27.7184C36.5438 27.7184 36.8756 27.4702 36.8756 27.1639C36.8756 26.8576 36.5438 26.6094 36.1344 26.6094C35.725 26.6094 35.3931 26.8576 35.3931 27.1639C35.3931 27.4702 35.725 27.7184 36.1344 27.7184Z" fill="#8643DC"/>
  <path d="M32.2431 30.4911C32.6524 30.4911 32.9843 30.2429 32.9843 29.9366C32.9843 29.6303 32.6524 29.3821 32.2431 29.3821C31.8337 29.3821 31.5019 29.6303 31.5019 29.9366C31.5019 30.2429 31.8337 30.4911 32.2431 30.4911Z" fill="#8643DC"/>
  <path d="M28.537 33.2638C28.9463 33.2638 29.2782 33.0156 29.2782 32.7093C29.2782 32.4031 28.9463 32.1548 28.537 32.1548C28.1276 32.1548 27.7958 32.4031 27.7958 32.7093C27.7958 33.0156 28.1276 33.2638 28.537 33.2638Z" fill="#8643DC"/>
  <path d="M24.6455 36.0363C25.0548 36.0363 25.3867 35.788 25.3867 35.4818C25.3867 35.1755 25.0548 34.9272 24.6455 34.9272C24.2361 34.9272 23.9043 35.1755 23.9043 35.4818C23.9043 35.788 24.2361 36.0363 24.6455 36.0363Z" fill="#8643DC"/>
  <path d="M20.9394 38.809C21.3487 38.809 21.6806 38.5607 21.6806 38.2545C21.6806 37.9482 21.3487 37.7 20.9394 37.7C20.53 37.7 20.1982 37.9482 20.1982 38.2545C20.1982 38.5607 20.53 38.809 20.9394 38.809Z" fill="#8643DC"/>
  <path d="M17.048 41.5817C17.4574 41.5817 17.7892 41.3334 17.7892 41.0272C17.7892 40.7209 17.4574 40.4727 17.048 40.4727C16.6386 40.4727 16.3068 40.7209 16.3068 41.0272C16.3068 41.3334 16.6386 41.5817 17.048 41.5817Z" fill="#8643DC"/>
  <path d="M13.3419 44.3544C13.7513 44.3544 14.0831 44.1062 14.0831 43.7999C14.0831 43.4936 13.7513 43.2454 13.3419 43.2454C12.9325 43.2454 12.6007 43.4936 12.6007 43.7999C12.6007 44.1062 12.9325 44.3544 13.3419 44.3544Z" fill="#8643DC"/>
  <path d="M9.45052 47.1271C9.85988 47.1271 10.1918 46.8789 10.1918 46.5726C10.1918 46.2663 9.85988 46.0181 9.45052 46.0181C9.04115 46.0181 8.70931 46.2663 8.70931 46.5726C8.70931 46.8789 9.04115 47.1271 9.45052 47.1271Z" fill="#8643DC"/>
  <path d="M67.0799 11.6369C67.4893 11.6369 67.8211 11.3886 67.8211 11.0824C67.8211 10.7761 67.4893 10.5278 67.0799 10.5278C66.6706 10.5278 66.3387 10.7761 66.3387 11.0824C66.3387 11.3886 66.6706 11.6369 67.0799 11.6369Z" fill="#8643DC"/>
  <path d="M63.3738 14.4096C63.7832 14.4096 64.1151 14.1613 64.1151 13.8551C64.1151 13.5488 63.7832 13.3005 63.3738 13.3005C62.9645 13.3005 62.6326 13.5488 62.6326 13.8551C62.6326 14.1613 62.9645 14.4096 63.3738 14.4096Z" fill="#8643DC"/>
  <path d="M59.4826 17.1823C59.8919 17.1823 60.2238 16.934 60.2238 16.6278C60.2238 16.3215 59.8919 16.0732 59.4826 16.0732C59.0732 16.0732 58.7414 16.3215 58.7414 16.6278C58.7414 16.934 59.0732 17.1823 59.4826 17.1823Z" fill="#8643DC"/>
  <path d="M55.7765 19.955C56.1858 19.955 56.5177 19.7067 56.5177 19.4005C56.5177 19.0942 56.1858 18.8459 55.7765 18.8459C55.3671 18.8459 55.0353 19.0942 55.0353 19.4005C55.0353 19.7067 55.3671 19.955 55.7765 19.955Z" fill="#8643DC"/>
  <path d="M51.885 22.7278C52.2944 22.7278 52.6262 22.4794 52.6262 22.1732C52.6262 21.8669 52.2944 21.6187 51.885 21.6187C51.4757 21.6187 51.1438 21.8669 51.1438 22.1732C51.1438 22.4794 51.4757 22.7278 51.885 22.7278Z" fill="#8643DC"/>
  <path d="M48.1791 25.5005C48.5884 25.5005 48.9203 25.2521 48.9203 24.9459C48.9203 24.6396 48.5884 24.3914 48.1791 24.3914C47.7697 24.3914 47.4378 24.6396 47.4378 24.9459C47.4378 25.2521 47.7697 25.5005 48.1791 25.5005Z" fill="#8643DC"/>
  <path d="M44.2876 28.2732C44.697 28.2732 45.0288 28.0249 45.0288 27.7186C45.0288 27.4123 44.697 27.1641 44.2876 27.1641C43.8783 27.1641 43.5464 27.4123 43.5464 27.7186C43.5464 28.0249 43.8783 28.2732 44.2876 28.2732Z" fill="#8643DC"/>
  <path d="M40.5815 31.0459C40.9909 31.0459 41.3227 30.7976 41.3227 30.4913C41.3227 30.185 40.9909 29.9368 40.5815 29.9368C40.1722 29.9368 39.8403 30.185 39.8403 30.4913C39.8403 30.7976 40.1722 31.0459 40.5815 31.0459Z" fill="#8643DC"/>
  <path d="M36.69 33.8186C37.0994 33.8186 37.4312 33.5703 37.4312 33.264C37.4312 32.9577 37.0994 32.7095 36.69 32.7095C36.2807 32.7095 35.9488 32.9577 35.9488 33.264C35.9488 33.5703 36.2807 33.8186 36.69 33.8186Z" fill="#8643DC"/>
  <path d="M32.9841 36.591C33.3934 36.591 33.7253 36.3427 33.7253 36.0365C33.7253 35.7302 33.3934 35.4819 32.9841 35.4819C32.5747 35.4819 32.2428 35.7302 32.2428 36.0365C32.2428 36.3427 32.5747 36.591 32.9841 36.591Z" fill="#8643DC"/>
  <path d="M29.0927 39.3637C29.502 39.3637 29.8339 39.1154 29.8339 38.8092C29.8339 38.5029 29.502 38.2546 29.0927 38.2546C28.6833 38.2546 28.3515 38.5029 28.3515 38.8092C28.3515 39.1154 28.6833 39.3637 29.0927 39.3637Z" fill="#8643DC"/>
  <path d="M25.3866 42.1364C25.7959 42.1364 26.1278 41.8881 26.1278 41.5819C26.1278 41.2756 25.7959 41.0273 25.3866 41.0273C24.9772 41.0273 24.6454 41.2756 24.6454 41.5819C24.6454 41.8881 24.9772 42.1364 25.3866 42.1364Z" fill="#8643DC"/>
  <path d="M21.4953 44.9092C21.9047 44.9092 22.2366 44.6608 22.2366 44.3546C22.2366 44.0483 21.9047 43.8 21.4953 43.8C21.0859 43.8 20.7541 44.0483 20.7541 44.3546C20.7541 44.6608 21.0859 44.9092 21.4953 44.9092Z" fill="#8643DC"/>
  <path d="M17.7892 47.6819C18.1986 47.6819 18.5305 47.4335 18.5305 47.1273C18.5305 46.821 18.1986 46.5728 17.7892 46.5728C17.3798 46.5728 17.048 46.821 17.048 47.1273C17.048 47.4335 17.3798 47.6819 17.7892 47.6819Z" fill="#8643DC"/>
  <path d="M13.8979 50.5932C14.3072 50.5932 14.6391 50.3449 14.6391 50.0387C14.6391 49.7324 14.3072 49.4841 13.8979 49.4841C13.4885 49.4841 13.1566 49.7324 13.1566 50.0387C13.1566 50.3449 13.4885 50.5932 13.8979 50.5932Z" fill="#8643DC"/>
  <path d="M71.5271 14.9641C71.9365 14.9641 72.2684 14.7158 72.2684 14.4096C72.2684 14.1033 71.9365 13.855 71.5271 13.855C71.1178 13.855 70.7859 14.1033 70.7859 14.4096C70.7859 14.7158 71.1178 14.9641 71.5271 14.9641Z" fill="#8643DC"/>
  <path d="M67.6358 17.7368C68.0451 17.7368 68.377 17.4885 68.377 17.1823C68.377 16.876 68.0451 16.6277 67.6358 16.6277C67.2264 16.6277 66.8945 16.876 66.8945 17.1823C66.8945 17.4885 67.2264 17.7368 67.6358 17.7368Z" fill="#8643DC"/>
  <path d="M63.9297 20.5095C64.3391 20.5095 64.6709 20.2612 64.6709 19.955C64.6709 19.6487 64.3391 19.4004 63.9297 19.4004C63.5203 19.4004 63.1884 19.6487 63.1884 19.955C63.1884 20.2612 63.5203 20.5095 63.9297 20.5095Z" fill="#8643DC"/>
  <path d="M60.0383 23.2822C60.4476 23.2822 60.7795 23.0339 60.7795 22.7277C60.7795 22.4214 60.4476 22.1731 60.0383 22.1731C59.6289 22.1731 59.2971 22.4214 59.2971 22.7277C59.2971 23.0339 59.6289 23.2822 60.0383 23.2822Z" fill="#8643DC"/>
  <path d="M56.3322 26.0549C56.7415 26.0549 57.0734 25.8066 57.0734 25.5004C57.0734 25.1941 56.7415 24.9458 56.3322 24.9458C55.9228 24.9458 55.591 25.1941 55.591 25.5004C55.591 25.8066 55.9228 26.0549 56.3322 26.0549Z" fill="#8643DC"/>
  <path d="M52.4408 28.8276C52.8501 28.8276 53.182 28.5793 53.182 28.2731C53.182 27.9668 52.8501 27.7185 52.4408 27.7185C52.0314 27.7185 51.6996 27.9668 51.6996 28.2731C51.6996 28.5793 52.0314 28.8276 52.4408 28.8276Z" fill="#8643DC"/>
  <path d="M48.7347 31.6003C49.144 31.6003 49.4759 31.352 49.4759 31.0458C49.4759 30.7395 49.144 30.4912 48.7347 30.4912C48.3253 30.4912 47.9935 30.7395 47.9935 31.0458C47.9935 31.352 48.3253 31.6003 48.7347 31.6003Z" fill="#8643DC"/>
  <path d="M44.8434 34.373C45.2528 34.373 45.5846 34.1248 45.5846 33.8185C45.5846 33.5122 45.2528 33.2639 44.8434 33.2639C44.434 33.2639 44.1022 33.5122 44.1022 33.8185C44.1022 34.1248 44.434 34.373 44.8434 34.373Z" fill="#8643DC"/>
  <path d="M41.1373 37.1455C41.5467 37.1455 41.8785 36.8972 41.8785 36.5909C41.8785 36.2847 41.5467 36.0364 41.1373 36.0364C40.728 36.0364 40.3961 36.2847 40.3961 36.5909C40.3961 36.8972 40.728 37.1455 41.1373 37.1455Z" fill="#8643DC"/>
  <path d="M37.2459 39.9182C37.6553 39.9182 37.9872 39.6699 37.9872 39.3637C37.9872 39.0574 37.6553 38.8091 37.2459 38.8091C36.8366 38.8091 36.5047 39.0574 36.5047 39.3637C36.5047 39.6699 36.8366 39.9182 37.2459 39.9182Z" fill="#8643DC"/>
  <path d="M33.54 42.6909C33.9493 42.6909 34.2812 42.4426 34.2812 42.1364C34.2812 41.8301 33.9493 41.5818 33.54 41.5818C33.1306 41.5818 32.7988 41.8301 32.7988 42.1364C32.7988 42.4426 33.1306 42.6909 33.54 42.6909Z" fill="#8643DC"/>
  <path d="M29.6485 45.4636C30.0579 45.4636 30.3897 45.2153 30.3897 44.9091C30.3897 44.6028 30.0579 44.3545 29.6485 44.3545C29.2392 44.3545 28.9073 44.6028 28.9073 44.9091C28.9073 45.2153 29.2392 45.4636 29.6485 45.4636Z" fill="#8643DC"/>
  <path d="M25.9424 48.375C26.3518 48.375 26.6836 48.1267 26.6836 47.8204C26.6836 47.5141 26.3518 47.2659 25.9424 47.2659C25.5331 47.2659 25.2012 47.5141 25.2012 47.8204C25.2012 48.1267 25.5331 48.375 25.9424 48.375Z" fill="#8643DC"/>
  <path d="M22.051 51.1477C22.4603 51.1477 22.7922 50.8994 22.7922 50.5931C22.7922 50.2868 22.4603 50.0386 22.051 50.0386C21.6416 50.0386 21.3098 50.2868 21.3098 50.5931C21.3098 50.8994 21.6416 51.1477 22.051 51.1477Z" fill="#8643DC"/>
  <path d="M18.345 53.9204C18.7544 53.9204 19.0862 53.6721 19.0862 53.3658C19.0862 53.0595 18.7544 52.8113 18.345 52.8113C17.9356 52.8113 17.6038 53.0595 17.6038 53.3658C17.6038 53.6721 17.9356 53.9204 18.345 53.9204Z" fill="#8643DC"/>
  <path d="M75.9744 18.2914C76.3837 18.2914 76.7156 18.0432 76.7156 17.7369C76.7156 17.4306 76.3837 17.1824 75.9744 17.1824C75.565 17.1824 75.2331 17.4306 75.2331 17.7369C75.2331 18.0432 75.565 18.2914 75.9744 18.2914Z" fill="#8643DC"/>
  <path d="M72.083 21.0641C72.4924 21.0641 72.8242 20.8159 72.8242 20.5096C72.8242 20.2033 72.4924 19.9551 72.083 19.9551C71.6737 19.9551 71.3418 20.2033 71.3418 20.5096C71.3418 20.8159 71.6737 21.0641 72.083 21.0641Z" fill="#8643DC"/>
  <path d="M68.3769 23.8368C68.7863 23.8368 69.1182 23.5886 69.1182 23.2823C69.1182 22.976 68.7863 22.7278 68.3769 22.7278C67.9676 22.7278 67.6357 22.976 67.6357 23.2823C67.6357 23.5886 67.9676 23.8368 68.3769 23.8368Z" fill="#8643DC"/>
  <path d="M64.4856 26.6095C64.8949 26.6095 65.2268 26.3613 65.2268 26.055C65.2268 25.7488 64.8949 25.5005 64.4856 25.5005C64.0762 25.5005 63.7444 25.7488 63.7444 26.055C63.7444 26.3613 64.0762 26.6095 64.4856 26.6095Z" fill="#8643DC"/>
  <path d="M60.5942 29.3823C61.0035 29.3823 61.3354 29.134 61.3354 28.8277C61.3354 28.5215 61.0035 28.2732 60.5942 28.2732C60.1848 28.2732 59.853 28.5215 59.853 28.8277C59.853 29.134 60.1848 29.3823 60.5942 29.3823Z" fill="#8643DC"/>
  <path d="M56.8882 32.155C57.2976 32.155 57.6294 31.9067 57.6294 31.6004C57.6294 31.2942 57.2976 31.0459 56.8882 31.0459C56.4788 31.0459 56.147 31.2942 56.147 31.6004C56.147 31.9067 56.4788 32.155 56.8882 32.155Z" fill="#8643DC"/>
  <path d="M52.9968 34.9277C53.4062 34.9277 53.7381 34.6794 53.7381 34.3731C53.7381 34.0669 53.4062 33.8186 52.9968 33.8186C52.5874 33.8186 52.2556 34.0669 52.2556 34.3731C52.2556 34.6794 52.5874 34.9277 52.9968 34.9277Z" fill="#8643DC"/>
  <path d="M49.2907 37.7004C49.7001 37.7004 50.032 37.4521 50.032 37.1458C50.032 36.8396 49.7001 36.5913 49.2907 36.5913C48.8814 36.5913 48.5495 36.8396 48.5495 37.1458C48.5495 37.4521 48.8814 37.7004 49.2907 37.7004Z" fill="#8643DC"/>
  <path d="M45.3993 40.4731C45.8086 40.4731 46.1405 40.2248 46.1405 39.9185C46.1405 39.6123 45.8086 39.364 45.3993 39.364C44.9899 39.364 44.658 39.6123 44.658 39.9185C44.658 40.2248 44.9899 40.4731 45.3993 40.4731Z" fill="#8643DC"/>
  <path d="M41.6933 43.2455C42.1027 43.2455 42.4345 42.9973 42.4345 42.691C42.4345 42.3847 42.1027 42.1365 41.6933 42.1365C41.2839 42.1365 40.952 42.3847 40.952 42.691C40.952 42.9973 41.2839 43.2455 41.6933 43.2455Z" fill="#8643DC"/>
  <path d="M37.8019 46.157C38.2112 46.157 38.5431 45.9087 38.5431 45.6024C38.5431 45.2962 38.2112 45.0479 37.8019 45.0479C37.3925 45.0479 37.0606 45.2962 37.0606 45.6024C37.0606 45.9087 37.3925 46.157 37.8019 46.157Z" fill="#8643DC"/>
  <path d="M34.0958 48.9297C34.5051 48.9297 34.837 48.6814 34.837 48.3751C34.837 48.0689 34.5051 47.8206 34.0958 47.8206C33.6864 47.8206 33.3546 48.0689 33.3546 48.3751C33.3546 48.6814 33.6864 48.9297 34.0958 48.9297Z" fill="#8643DC"/>
  <path d="M30.2044 51.7024C30.6137 51.7024 30.9456 51.4541 30.9456 51.1478C30.9456 50.8416 30.6137 50.5933 30.2044 50.5933C29.795 50.5933 29.4632 50.8416 29.4632 51.1478C29.4632 51.4541 29.795 51.7024 30.2044 51.7024Z" fill="#8643DC"/>
  <path d="M26.4983 54.4751C26.9076 54.4751 27.2395 54.2268 27.2395 53.9205C27.2395 53.6143 26.9076 53.366 26.4983 53.366C26.0889 53.366 25.7571 53.6143 25.7571 53.9205C25.7571 54.2268 26.0889 54.4751 26.4983 54.4751Z" fill="#8643DC"/>
  <path d="M22.607 57.2478C23.0164 57.2478 23.3482 56.9995 23.3482 56.6932C23.3482 56.387 23.0164 56.1387 22.607 56.1387C22.1976 56.1387 21.8658 56.387 21.8658 56.6932C21.8658 56.9995 22.1976 57.2478 22.607 57.2478Z" fill="#8643DC"/>
  <path d="M80.2364 21.6186C80.6458 21.6186 80.9776 21.3703 80.9776 21.0641C80.9776 20.7578 80.6458 20.5095 80.2364 20.5095C79.8271 20.5095 79.4952 20.7578 79.4952 21.0641C79.4952 21.3703 79.8271 21.6186 80.2364 21.6186Z" fill="#8643DC"/>
  <path d="M76.5305 24.3913C76.9398 24.3913 77.2717 24.143 77.2717 23.8368C77.2717 23.5305 76.9398 23.2822 76.5305 23.2822C76.1211 23.2822 75.7892 23.5305 75.7892 23.8368C75.7892 24.143 76.1211 24.3913 76.5305 24.3913Z" fill="#8643DC"/>
  <path d="M72.639 27.164C73.0483 27.164 73.3802 26.9157 73.3802 26.6095C73.3802 26.3032 73.0483 26.0549 72.639 26.0549C72.2296 26.0549 71.8978 26.3032 71.8978 26.6095C71.8978 26.9157 72.2296 27.164 72.639 27.164Z" fill="#8643DC"/>
  <path d="M68.9329 29.9367C69.3422 29.9367 69.6741 29.6884 69.6741 29.3822C69.6741 29.0759 69.3422 28.8276 68.9329 28.8276C68.5235 28.8276 68.1917 29.0759 68.1917 29.3822C68.1917 29.6884 68.5235 29.9367 68.9329 29.9367Z" fill="#8643DC"/>
  <path d="M65.0416 32.7094C65.4509 32.7094 65.7828 32.4611 65.7828 32.1549C65.7828 31.8486 65.4509 31.6003 65.0416 31.6003C64.6322 31.6003 64.3004 31.8486 64.3004 32.1549C64.3004 32.4611 64.6322 32.7094 65.0416 32.7094Z" fill="#8643DC"/>
  <path d="M61.3355 35.4821C61.7449 35.4821 62.0768 35.2338 62.0768 34.9276C62.0768 34.6213 61.7449 34.373 61.3355 34.373C60.9261 34.373 60.5943 34.6213 60.5943 34.9276C60.5943 35.2338 60.9261 35.4821 61.3355 35.4821Z" fill="#8643DC"/>
  <path d="M57.4443 38.2548C57.8536 38.2548 58.1855 38.0065 58.1855 37.7003C58.1855 37.394 57.8536 37.1458 57.4443 37.1458C57.0349 37.1458 56.703 37.394 56.703 37.7003C56.703 38.0065 57.0349 38.2548 57.4443 38.2548Z" fill="#8643DC"/>
  <path d="M53.7382 41.0275C54.1475 41.0275 54.4794 40.7792 54.4794 40.473C54.4794 40.1667 54.1475 39.9185 53.7382 39.9185C53.3288 39.9185 52.9969 40.1667 52.9969 40.473C52.9969 40.7792 53.3288 41.0275 53.7382 41.0275Z" fill="#8643DC"/>
  <path d="M49.8467 43.8002C50.2561 43.8002 50.5879 43.552 50.5879 43.2457C50.5879 42.9394 50.2561 42.6912 49.8467 42.6912C49.4374 42.6912 49.1055 42.9394 49.1055 43.2457C49.1055 43.552 49.4374 43.8002 49.8467 43.8002Z" fill="#8643DC"/>
  <path d="M45.9554 46.7114C46.3647 46.7114 46.6966 46.4631 46.6966 46.1568C46.6966 45.8506 46.3647 45.6023 45.9554 45.6023C45.546 45.6023 45.2142 45.8506 45.2142 46.1568C45.2142 46.4631 45.546 46.7114 45.9554 46.7114Z" fill="#8643DC"/>
  <path d="M42.2493 49.4841C42.6586 49.4841 42.9905 49.2358 42.9905 48.9295C42.9905 48.6233 42.6586 48.375 42.2493 48.375C41.8399 48.375 41.5081 48.6233 41.5081 48.9295C41.5081 49.2358 41.8399 49.4841 42.2493 49.4841Z" fill="#8643DC"/>
  <path d="M38.3578 52.2568C38.7671 52.2568 39.099 52.0085 39.099 51.7022C39.099 51.396 38.7671 51.1477 38.3578 51.1477C37.9484 51.1477 37.6166 51.396 37.6166 51.7022C37.6166 52.0085 37.9484 52.2568 38.3578 52.2568Z" fill="#8643DC"/>
  <path d="M34.6517 55.0295C35.061 55.0295 35.3929 54.7812 35.3929 54.4749C35.3929 54.1687 35.061 53.9204 34.6517 53.9204C34.2423 53.9204 33.9105 54.1687 33.9105 54.4749C33.9105 54.7812 34.2423 55.0295 34.6517 55.0295Z" fill="#8643DC"/>
  <path d="M30.7604 57.8022C31.1698 57.8022 31.5017 57.5539 31.5017 57.2476C31.5017 56.9414 31.1698 56.6931 30.7604 56.6931C30.351 56.6931 30.0192 56.9414 30.0192 57.2476C30.0192 57.5539 30.351 57.8022 30.7604 57.8022Z" fill="#8643DC"/>
  <path d="M27.0543 60.5749C27.4637 60.5749 27.7956 60.3266 27.7956 60.0203C27.7956 59.7141 27.4637 59.4658 27.0543 59.4658C26.645 59.4658 26.3131 59.7141 26.3131 60.0203C26.3131 60.3266 26.645 60.5749 27.0543 60.5749Z" fill="#8643DC"/>
  <path d="M84.6837 24.9457C85.0931 24.9457 85.4249 24.6975 85.4249 24.3912C85.4249 24.0849 85.0931 23.8367 84.6837 23.8367C84.2744 23.8367 83.9425 24.0849 83.9425 24.3912C83.9425 24.6975 84.2744 24.9457 84.6837 24.9457Z" fill="#8643DC"/>
  <path d="M80.7925 27.7184C81.2018 27.7184 81.5337 27.4702 81.5337 27.1639C81.5337 26.8576 81.2018 26.6094 80.7925 26.6094C80.3831 26.6094 80.0513 26.8576 80.0513 27.1639C80.0513 27.4702 80.3831 27.7184 80.7925 27.7184Z" fill="#8643DC"/>
  <path d="M77.0864 30.4911C77.4957 30.4911 77.8276 30.2429 77.8276 29.9366C77.8276 29.6303 77.4957 29.3821 77.0864 29.3821C76.677 29.3821 76.3452 29.6303 76.3452 29.9366C76.3452 30.2429 76.677 30.4911 77.0864 30.4911Z" fill="#8643DC"/>
  <path d="M73.1949 33.2638C73.6043 33.2638 73.9361 33.0156 73.9361 32.7093C73.9361 32.4031 73.6043 32.1548 73.1949 32.1548C72.7856 32.1548 72.4537 32.4031 72.4537 32.7093C72.4537 33.0156 72.7856 33.2638 73.1949 33.2638Z" fill="#8643DC"/>
  <path d="M69.4888 36.0365C69.8982 36.0365 70.23 35.7883 70.23 35.482C70.23 35.1758 69.8982 34.9275 69.4888 34.9275C69.0795 34.9275 68.7476 35.1758 68.7476 35.482C68.7476 35.7883 69.0795 36.0365 69.4888 36.0365Z" fill="#8643DC"/>
  <path d="M65.5975 38.8093C66.0069 38.8093 66.3387 38.561 66.3387 38.2547C66.3387 37.9485 66.0069 37.7002 65.5975 37.7002C65.1881 37.7002 64.8563 37.9485 64.8563 38.2547C64.8563 38.561 65.1881 38.8093 65.5975 38.8093Z" fill="#8643DC"/>
  <path d="M61.8914 41.582C62.3008 41.582 62.6326 41.3337 62.6326 41.0274C62.6326 40.7212 62.3008 40.4729 61.8914 40.4729C61.4821 40.4729 61.1502 40.7212 61.1502 41.0274C61.1502 41.3337 61.4821 41.582 61.8914 41.582Z" fill="#8643DC"/>
  <path d="M57.9999 44.4931C58.4093 44.4931 58.7411 44.2448 58.7411 43.9386C58.7411 43.6323 58.4093 43.384 57.9999 43.384C57.5906 43.384 57.2587 43.6323 57.2587 43.9386C57.2587 44.2448 57.5906 44.4931 57.9999 44.4931Z" fill="#8643DC"/>
  <path d="M54.2939 47.2658C54.7033 47.2658 55.0351 47.0175 55.0351 46.7113C55.0351 46.405 54.7033 46.1567 54.2939 46.1567C53.8846 46.1567 53.5527 46.405 53.5527 46.7113C53.5527 47.0175 53.8846 47.2658 54.2939 47.2658Z" fill="#8643DC"/>
  <path d="M50.4025 50.0385C50.8119 50.0385 51.1438 49.7902 51.1438 49.484C51.1438 49.1777 50.8119 48.9294 50.4025 48.9294C49.9932 48.9294 49.6613 49.1777 49.6613 49.484C49.6613 49.7902 49.9932 50.0385 50.4025 50.0385Z" fill="#8643DC"/>
  <path d="M46.6965 52.8112C47.1058 52.8112 47.4377 52.5629 47.4377 52.2567C47.4377 51.9504 47.1058 51.7021 46.6965 51.7021C46.2871 51.7021 45.9553 51.9504 45.9553 52.2567C45.9553 52.5629 46.2871 52.8112 46.6965 52.8112Z" fill="#8643DC"/>
  <path d="M42.8052 55.5839C43.2145 55.5839 43.5464 55.3356 43.5464 55.0294C43.5464 54.7231 43.2145 54.4749 42.8052 54.4749C42.3958 54.4749 42.064 54.7231 42.064 55.0294C42.064 55.3356 42.3958 55.5839 42.8052 55.5839Z" fill="#8643DC"/>
  <path d="M39.0991 58.3566C39.5085 58.3566 39.8404 58.1084 39.8404 57.8021C39.8404 57.4958 39.5085 57.2476 39.0991 57.2476C38.6897 57.2476 38.3579 57.4958 38.3579 57.8021C38.3579 58.1084 38.6897 58.3566 39.0991 58.3566Z" fill="#8643DC"/>
  <path d="M35.2078 61.1293C35.6171 61.1293 35.949 60.8811 35.949 60.5748C35.949 60.2685 35.6171 60.0203 35.2078 60.0203C34.7984 60.0203 34.4665 60.2685 34.4665 60.5748C34.4665 60.8811 34.7984 61.1293 35.2078 61.1293Z" fill="#8643DC"/>
  <path d="M31.5017 63.902C31.911 63.902 32.2429 63.6538 32.2429 63.3475C32.2429 63.0412 31.911 62.793 31.5017 62.793C31.0923 62.793 30.7604 63.0412 30.7604 63.3475C30.7604 63.6538 31.0923 63.902 31.5017 63.902Z" fill="#8643DC"/>
  <path d="M88.9456 28.2729C89.355 28.2729 89.6868 28.0246 89.6868 27.7183C89.6868 27.4121 89.355 27.1638 88.9456 27.1638C88.5362 27.1638 88.2043 27.4121 88.2043 27.7183C88.2043 28.0246 88.5362 28.2729 88.9456 28.2729Z" fill="#8643DC"/>
  <path d="M85.2395 31.0456C85.6489 31.0456 85.9807 30.7973 85.9807 30.4911C85.9807 30.1848 85.6489 29.9365 85.2395 29.9365C84.8301 29.9365 84.4982 30.1848 84.4982 30.4911C84.4982 30.7973 84.8301 31.0456 85.2395 31.0456Z" fill="#8643DC"/>
  <path d="M81.3482 33.8183C81.7575 33.8183 82.0894 33.57 82.0894 33.2638C82.0894 32.9575 81.7575 32.7092 81.3482 32.7092C80.9388 32.7092 80.607 32.9575 80.607 33.2638C80.607 33.57 80.9388 33.8183 81.3482 33.8183Z" fill="#8643DC"/>
  <path d="M77.6421 36.591C78.0514 36.591 78.3833 36.3427 78.3833 36.0365C78.3833 35.7302 78.0514 35.4819 77.6421 35.4819C77.2327 35.4819 76.9009 35.7302 76.9009 36.0365C76.9009 36.3427 77.2327 36.591 77.6421 36.591Z" fill="#8643DC"/>
  <path d="M73.7508 39.3637C74.1602 39.3637 74.492 39.1154 74.492 38.8092C74.492 38.5029 74.1602 38.2546 73.7508 38.2546C73.3414 38.2546 73.0096 38.5029 73.0096 38.8092C73.0096 39.1154 73.3414 39.3637 73.7508 39.3637Z" fill="#8643DC"/>
  <path d="M70.0447 42.2751C70.4541 42.2751 70.7859 42.0268 70.7859 41.7205C70.7859 41.4143 70.4541 41.166 70.0447 41.166C69.6354 41.166 69.3035 41.4143 69.3035 41.7205C69.3035 42.0268 69.6354 42.2751 70.0447 42.2751Z" fill="#8643DC"/>
  <path d="M66.1534 45.0478C66.5628 45.0478 66.8946 44.7995 66.8946 44.4933C66.8946 44.187 66.5628 43.9387 66.1534 43.9387C65.7441 43.9387 65.4122 44.187 65.4122 44.4933C65.4122 44.7995 65.7441 45.0478 66.1534 45.0478Z" fill="#8643DC"/>
  <path d="M62.4473 47.8202C62.8567 47.8202 63.1885 47.572 63.1885 47.2657C63.1885 46.9594 62.8567 46.7112 62.4473 46.7112C62.038 46.7112 61.7061 46.9594 61.7061 47.2657C61.7061 47.572 62.038 47.8202 62.4473 47.8202Z" fill="#8643DC"/>
  <path d="M58.5558 50.5929C58.9652 50.5929 59.2971 50.3447 59.2971 50.0384C59.2971 49.7322 58.9652 49.4839 58.5558 49.4839C58.1465 49.4839 57.8146 49.7322 57.8146 50.0384C57.8146 50.3447 58.1465 50.5929 58.5558 50.5929Z" fill="#8643DC"/>
  <path d="M54.8498 53.3657C55.2591 53.3657 55.591 53.1174 55.591 52.8111C55.591 52.5049 55.2591 52.2566 54.8498 52.2566C54.4404 52.2566 54.1086 52.5049 54.1086 52.8111C54.1086 53.1174 54.4404 53.3657 54.8498 53.3657Z" fill="#8643DC"/>
  <path d="M50.9584 56.1384C51.3678 56.1384 51.6996 55.8901 51.6996 55.5838C51.6996 55.2776 51.3678 55.0293 50.9584 55.0293C50.5491 55.0293 50.2172 55.2776 50.2172 55.5838C50.2172 55.8901 50.5491 56.1384 50.9584 56.1384Z" fill="#8643DC"/>
  <path d="M47.2523 58.9111C47.6617 58.9111 47.9935 58.6628 47.9935 58.3565C47.9935 58.0503 47.6617 57.802 47.2523 57.802C46.843 57.802 46.5111 58.0503 46.5111 58.3565C46.5111 58.6628 46.843 58.9111 47.2523 58.9111Z" fill="#8643DC"/>
  <path d="M43.3609 61.6838C43.7703 61.6838 44.1021 61.4355 44.1021 61.1292C44.1021 60.823 43.7703 60.5747 43.3609 60.5747C42.9515 60.5747 42.6197 60.823 42.6197 61.1292C42.6197 61.4355 42.9515 61.6838 43.3609 61.6838Z" fill="#8643DC"/>
  <path d="M39.6549 64.4565C40.0643 64.4565 40.3961 64.2082 40.3961 63.9019C40.3961 63.5957 40.0643 63.3474 39.6549 63.3474C39.2456 63.3474 38.9137 63.5957 38.9137 63.9019C38.9137 64.2082 39.2456 64.4565 39.6549 64.4565Z" fill="#8643DC"/>
  <path d="M35.7635 67.2292C36.1729 67.2292 36.5047 66.9809 36.5047 66.6746C36.5047 66.3684 36.1729 66.1201 35.7635 66.1201C35.3542 66.1201 35.0223 66.3684 35.0223 66.6746C35.0223 66.9809 35.3542 67.2292 35.7635 67.2292Z" fill="#8643DC"/>
  <path d="M93.3929 31.6003C93.8023 31.6003 94.1341 31.352 94.1341 31.0458C94.1341 30.7395 93.8023 30.4912 93.3929 30.4912C92.9836 30.4912 92.6517 30.7395 92.6517 31.0458C92.6517 31.352 92.9836 31.6003 93.3929 31.6003Z" fill="#8643DC"/>
  <path d="M89.6868 34.373C90.0962 34.373 90.428 34.1248 90.428 33.8185C90.428 33.5122 90.0962 33.2639 89.6868 33.2639C89.2775 33.2639 88.9456 33.5122 88.9456 33.8185C88.9456 34.1248 89.2775 34.373 89.6868 34.373Z" fill="#8643DC"/>
  <path d="M85.7954 37.1457C86.2048 37.1457 86.5367 36.8975 86.5367 36.5912C86.5367 36.2849 86.2048 36.0366 85.7954 36.0366C85.3861 36.0366 85.0542 36.2849 85.0542 36.5912C85.0542 36.8975 85.3861 37.1457 85.7954 37.1457Z" fill="#8643DC"/>
  <path d="M82.0894 40.0571C82.4987 40.0571 82.8306 39.8088 82.8306 39.5025C82.8306 39.1963 82.4987 38.948 82.0894 38.948C81.68 38.948 81.3482 39.1963 81.3482 39.5025C81.3482 39.8088 81.68 40.0571 82.0894 40.0571Z" fill="#8643DC"/>
  <path d="M78.198 42.8298C78.6073 42.8298 78.9392 42.5815 78.9392 42.2752C78.9392 41.969 78.6073 41.7207 78.198 41.7207C77.7886 41.7207 77.4568 41.969 77.4568 42.2752C77.4568 42.5815 77.7886 42.8298 78.198 42.8298Z" fill="#8643DC"/>
  <path d="M74.3067 45.6025C74.7161 45.6025 75.048 45.3542 75.048 45.0479C75.048 44.7417 74.7161 44.4934 74.3067 44.4934C73.8973 44.4934 73.5655 44.7417 73.5655 45.0479C73.5655 45.3542 73.8973 45.6025 74.3067 45.6025Z" fill="#8643DC"/>
  <path d="M70.6006 48.3752C71.01 48.3752 71.3419 48.1269 71.3419 47.8206C71.3419 47.5144 71.01 47.2661 70.6006 47.2661C70.1912 47.2661 69.8594 47.5144 69.8594 47.8206C69.8594 48.1269 70.1912 48.3752 70.6006 48.3752Z" fill="#8643DC"/>
  <path d="M66.7093 51.1479C67.1186 51.1479 67.4505 50.8996 67.4505 50.5933C67.4505 50.2871 67.1186 50.0388 66.7093 50.0388C66.2999 50.0388 65.968 50.2871 65.968 50.5933C65.968 50.8996 66.2999 51.1479 66.7093 51.1479Z" fill="#8643DC"/>
  <path d="M63.0032 53.9204C63.4125 53.9204 63.7444 53.6721 63.7444 53.3658C63.7444 53.0595 63.4125 52.8113 63.0032 52.8113C62.5938 52.8113 62.2619 53.0595 62.2619 53.3658C62.2619 53.6721 62.5938 53.9204 63.0032 53.9204Z" fill="#8643DC"/>
  <path d="M59.1117 56.6931C59.5211 56.6931 59.8529 56.4448 59.8529 56.1385C59.8529 55.8323 59.5211 55.584 59.1117 55.584C58.7024 55.584 58.3705 55.8323 58.3705 56.1385C58.3705 56.4448 58.7024 56.6931 59.1117 56.6931Z" fill="#8643DC"/>
  <path d="M55.4058 59.4658C55.8151 59.4658 56.147 59.2175 56.147 58.9112C56.147 58.605 55.8151 58.3567 55.4058 58.3567C54.9964 58.3567 54.6646 58.605 54.6646 58.9112C54.6646 59.2175 54.9964 59.4658 55.4058 59.4658Z" fill="#8643DC"/>
  <path d="M51.5143 62.2385C51.9236 62.2385 52.2555 61.9902 52.2555 61.6839C52.2555 61.3777 51.9236 61.1294 51.5143 61.1294C51.1049 61.1294 50.7731 61.3777 50.7731 61.6839C50.7731 61.9902 51.1049 62.2385 51.5143 62.2385Z" fill="#8643DC"/>
  <path d="M47.8082 65.0112C48.2175 65.0112 48.5494 64.7629 48.5494 64.4566C48.5494 64.1504 48.2175 63.9021 47.8082 63.9021C47.3988 63.9021 47.067 64.1504 47.067 64.4566C47.067 64.7629 47.3988 65.0112 47.8082 65.0112Z" fill="#8643DC"/>
  <path d="M43.9168 67.7839C44.3261 67.7839 44.658 67.5356 44.658 67.2293C44.658 66.9231 44.3261 66.6748 43.9168 66.6748C43.5074 66.6748 43.1756 66.9231 43.1756 67.2293C43.1756 67.5356 43.5074 67.7839 43.9168 67.7839Z" fill="#8643DC"/>
  <path d="M40.2108 70.5566C40.6202 70.5566 40.952 70.3083 40.952 70.002C40.952 69.6958 40.6202 69.4475 40.2108 69.4475C39.8014 69.4475 39.4696 69.6958 39.4696 70.002C39.4696 70.3083 39.8014 70.5566 40.2108 70.5566Z" fill="#8643DC"/>
  <path d="M97.8401 34.9274C98.2495 34.9274 98.5813 34.6792 98.5813 34.3729C98.5813 34.0666 98.2495 33.8184 97.8401 33.8184C97.4308 33.8184 97.0989 34.0666 97.0989 34.3729C97.0989 34.6792 97.4308 34.9274 97.8401 34.9274Z" fill="#8643DC"/>
  <path d="M93.9488 37.8388C94.3582 37.8388 94.69 37.5906 94.69 37.2843C94.69 36.978 94.3582 36.7297 93.9488 36.7297C93.5395 36.7297 93.2076 36.978 93.2076 37.2843C93.2076 37.5906 93.5395 37.8388 93.9488 37.8388Z" fill="#8643DC"/>
  <path d="M90.2428 40.6115C90.6521 40.6115 90.984 40.3633 90.984 40.057C90.984 39.7508 90.6521 39.5024 90.2428 39.5024C89.8334 39.5024 89.5016 39.7508 89.5016 40.057C89.5016 40.3633 89.8334 40.6115 90.2428 40.6115Z" fill="#8643DC"/>
  <path d="M86.3515 43.3842C86.7608 43.3842 87.0927 43.136 87.0927 42.8297C87.0927 42.5235 86.7608 42.2751 86.3515 42.2751C85.9421 42.2751 85.6103 42.5235 85.6103 42.8297C85.6103 43.136 85.9421 43.3842 86.3515 43.3842Z" fill="#8643DC"/>
  <path d="M82.6454 46.1567C83.0548 46.1567 83.3866 45.9084 83.3866 45.6022C83.3866 45.2959 83.0548 45.0476 82.6454 45.0476C82.236 45.0476 81.9042 45.2959 81.9042 45.6022C81.9042 45.9084 82.236 46.1567 82.6454 46.1567Z" fill="#8643DC"/>
  <path d="M78.7541 48.9294C79.1634 48.9294 79.4953 48.6811 79.4953 48.3749C79.4953 48.0686 79.1634 47.8203 78.7541 47.8203C78.3447 47.8203 78.0128 48.0686 78.0128 48.3749C78.0128 48.6811 78.3447 48.9294 78.7541 48.9294Z" fill="#8643DC"/>
  <path d="M75.048 51.7021C75.4573 51.7021 75.7892 51.4539 75.7892 51.1476C75.7892 50.8413 75.4573 50.593 75.048 50.593C74.6386 50.593 74.3067 50.8413 74.3067 51.1476C74.3067 51.4539 74.6386 51.7021 75.048 51.7021Z" fill="#8643DC"/>
  <path d="M71.1565 54.4748C71.5659 54.4748 71.8977 54.2266 71.8977 53.9203C71.8977 53.614 71.5659 53.3657 71.1565 53.3657C70.7472 53.3657 70.4153 53.614 70.4153 53.9203C70.4153 54.2266 70.7472 54.4748 71.1565 54.4748Z" fill="#8643DC"/>
  <path d="M67.4504 57.2475C67.8598 57.2475 68.1916 56.9993 68.1916 56.693C68.1916 56.3867 67.8598 56.1384 67.4504 56.1384C67.0411 56.1384 66.7092 56.3867 66.7092 56.693C66.7092 56.9993 67.0411 57.2475 67.4504 57.2475Z" fill="#8643DC"/>
  <path d="M63.559 60.0202C63.9684 60.0202 64.3003 59.772 64.3003 59.4657C64.3003 59.1594 63.9684 58.9111 63.559 58.9111C63.1497 58.9111 62.8178 59.1594 62.8178 59.4657C62.8178 59.772 63.1497 60.0202 63.559 60.0202Z" fill="#8643DC"/>
  <path d="M59.6677 62.7929C60.077 62.7929 60.4089 62.5447 60.4089 62.2384C60.4089 61.9321 60.077 61.6838 59.6677 61.6838C59.2583 61.6838 58.9265 61.9321 58.9265 62.2384C58.9265 62.5447 59.2583 62.7929 59.6677 62.7929Z" fill="#8643DC"/>
  <path d="M55.9616 65.5656C56.3709 65.5656 56.7028 65.3174 56.7028 65.0111C56.7028 64.7049 56.3709 64.4565 55.9616 64.4565C55.5522 64.4565 55.2204 64.7049 55.2204 65.0111C55.2204 65.3174 55.5522 65.5656 55.9616 65.5656Z" fill="#8643DC"/>
  <path d="M52.0703 68.3383C52.4797 68.3383 52.8116 68.0901 52.8116 67.7838C52.8116 67.4776 52.4797 67.2292 52.0703 67.2292C51.6609 67.2292 51.3291 67.4776 51.3291 67.7838C51.3291 68.0901 51.6609 68.3383 52.0703 68.3383Z" fill="#8643DC"/>
  <path d="M48.3642 71.1111C48.7736 71.1111 49.1055 70.8628 49.1055 70.5565C49.1055 70.2503 48.7736 70.002 48.3642 70.002C47.9548 70.002 47.623 70.2503 47.623 70.5565C47.623 70.8628 47.9548 71.1111 48.3642 71.1111Z" fill="#8643DC"/>
  <path d="M44.4729 73.8838C44.8822 73.8838 45.2141 73.6355 45.2141 73.3292C45.2141 73.023 44.8822 72.7747 44.4729 72.7747C44.0635 72.7747 43.7316 73.023 43.7316 73.3292C43.7316 73.6355 44.0635 73.8838 44.4729 73.8838Z" fill="#8643DC"/>
  <path d="M102.102 38.3932C102.512 38.3932 102.843 38.145 102.843 37.8387C102.843 37.5324 102.512 37.2842 102.102 37.2842C101.693 37.2842 101.361 37.5324 101.361 37.8387C101.361 38.145 101.693 38.3932 102.102 38.3932Z" fill="#8643DC"/>
  <path d="M98.3961 41.1659C98.8055 41.1659 99.1374 40.9177 99.1374 40.6114C99.1374 40.3052 98.8055 40.0569 98.3961 40.0569C97.9868 40.0569 97.6549 40.3052 97.6549 40.6114C97.6549 40.9177 97.9868 41.1659 98.3961 41.1659Z" fill="#8643DC"/>
  <path d="M94.5048 43.9386C94.9142 43.9386 95.246 43.6904 95.246 43.3841C95.246 43.0779 94.9142 42.8296 94.5048 42.8296C94.0955 42.8296 93.7636 43.0779 93.7636 43.3841C93.7636 43.6904 94.0955 43.9386 94.5048 43.9386Z" fill="#8643DC"/>
  <path d="M90.7987 46.7114C91.2081 46.7114 91.5399 46.4631 91.5399 46.1568C91.5399 45.8506 91.2081 45.6023 90.7987 45.6023C90.3894 45.6023 90.0575 45.8506 90.0575 46.1568C90.0575 46.4631 90.3894 46.7114 90.7987 46.7114Z" fill="#8643DC"/>
  <path d="M86.9073 49.4841C87.3166 49.4841 87.6485 49.2358 87.6485 48.9295C87.6485 48.6233 87.3166 48.375 86.9073 48.375C86.4979 48.375 86.1661 48.6233 86.1661 48.9295C86.1661 49.2358 86.4979 49.4841 86.9073 49.4841Z" fill="#8643DC"/>
  <path d="M83.2013 52.2568C83.6107 52.2568 83.9425 52.0085 83.9425 51.7022C83.9425 51.396 83.6107 51.1477 83.2013 51.1477C82.7919 51.1477 82.4601 51.396 82.4601 51.7022C82.4601 52.0085 82.7919 52.2568 83.2013 52.2568Z" fill="#8643DC"/>
  <path d="M79.3098 55.0295C79.7192 55.0295 80.051 54.7812 80.051 54.4749C80.051 54.1687 79.7192 53.9204 79.3098 53.9204C78.9004 53.9204 78.5686 54.1687 78.5686 54.4749C78.5686 54.7812 78.9004 55.0295 79.3098 55.0295Z" fill="#8643DC"/>
  <path d="M75.6037 57.8022C76.0131 57.8022 76.3449 57.5539 76.3449 57.2476C76.3449 56.9414 76.0131 56.6931 75.6037 56.6931C75.1944 56.6931 74.8625 56.9414 74.8625 57.2476C74.8625 57.5539 75.1944 57.8022 75.6037 57.8022Z" fill="#8643DC"/>
  <path d="M71.7124 60.5749C72.1218 60.5749 72.4536 60.3266 72.4536 60.0203C72.4536 59.7141 72.1218 59.4658 71.7124 59.4658C71.3031 59.4658 70.9712 59.7141 70.9712 60.0203C70.9712 60.3266 71.3031 60.5749 71.7124 60.5749Z" fill="#8643DC"/>
  <path d="M68.0064 63.3473C68.4157 63.3473 68.7476 63.0991 68.7476 62.7928C68.7476 62.4865 68.4157 62.2383 68.0064 62.2383C67.597 62.2383 67.2651 62.4865 67.2651 62.7928C67.2651 63.0991 67.597 63.3473 68.0064 63.3473Z" fill="#8643DC"/>
  <path d="M64.115 66.12C64.5243 66.12 64.8562 65.8718 64.8562 65.5655C64.8562 65.2593 64.5243 65.011 64.115 65.011C63.7056 65.011 63.3738 65.2593 63.3738 65.5655C63.3738 65.8718 63.7056 66.12 64.115 66.12Z" fill="#8643DC"/>
  <path d="M60.4089 68.8928C60.8182 68.8928 61.1501 68.6445 61.1501 68.3382C61.1501 68.032 60.8182 67.7837 60.4089 67.7837C59.9995 67.7837 59.6677 68.032 59.6677 68.3382C59.6677 68.6445 59.9995 68.8928 60.4089 68.8928Z" fill="#8643DC"/>
  <path d="M56.5175 71.6655C56.9269 71.6655 57.2587 71.4172 57.2587 71.1109C57.2587 70.8047 56.9269 70.5564 56.5175 70.5564C56.1082 70.5564 55.7763 70.8047 55.7763 71.1109C55.7763 71.4172 56.1082 71.6655 56.5175 71.6655Z" fill="#8643DC"/>
  <path d="M52.8115 74.4382C53.2208 74.4382 53.5527 74.1899 53.5527 73.8836C53.5527 73.5774 53.2208 73.3291 52.8115 73.3291C52.4021 73.3291 52.0702 73.5774 52.0702 73.8836C52.0702 74.1899 52.4021 74.4382 52.8115 74.4382Z" fill="#8643DC"/>
  <path d="M48.9201 77.2109C49.3295 77.2109 49.6613 76.9626 49.6613 76.6563C49.6613 76.3501 49.3295 76.1018 48.9201 76.1018C48.5108 76.1018 48.1789 76.3501 48.1789 76.6563C48.1789 76.9626 48.5108 77.2109 48.9201 77.2109Z" fill="#8643DC"/>
  <path d="M106.549 41.7206C106.959 41.7206 107.291 41.4724 107.291 41.1661C107.291 40.8598 106.959 40.6116 106.549 40.6116C106.14 40.6116 105.808 40.8598 105.808 41.1661C105.808 41.4724 106.14 41.7206 106.549 41.7206Z" fill="#8643DC"/>
  <path d="M102.658 44.4933C103.067 44.4933 103.399 44.2451 103.399 43.9388C103.399 43.6325 103.067 43.3843 102.658 43.3843C102.249 43.3843 101.917 43.6325 101.917 43.9388C101.917 44.2451 102.249 44.4933 102.658 44.4933Z" fill="#8643DC"/>
  <path d="M98.9521 47.266C99.3614 47.266 99.6933 47.0178 99.6933 46.7115C99.6933 46.4052 99.3614 46.157 98.9521 46.157C98.5427 46.157 98.2109 46.4052 98.2109 46.7115C98.2109 47.0178 98.5427 47.266 98.9521 47.266Z" fill="#8643DC"/>
  <path d="M95.0607 50.0387C95.47 50.0387 95.8019 49.7905 95.8019 49.4842C95.8019 49.178 95.47 48.9297 95.0607 48.9297C94.6513 48.9297 94.3195 49.178 94.3195 49.4842C94.3195 49.7905 94.6513 50.0387 95.0607 50.0387Z" fill="#8643DC"/>
  <path d="M91.3546 52.8115C91.7639 52.8115 92.0958 52.5632 92.0958 52.2569C92.0958 51.9507 91.7639 51.7024 91.3546 51.7024C90.9452 51.7024 90.6134 51.9507 90.6134 52.2569C90.6134 52.5632 90.9452 52.8115 91.3546 52.8115Z" fill="#8643DC"/>
  <path d="M87.4633 55.5842C87.8727 55.5842 88.2045 55.3359 88.2045 55.0296C88.2045 54.7234 87.8727 54.4751 87.4633 54.4751C87.0539 54.4751 86.7221 54.7234 86.7221 55.0296C86.7221 55.3359 87.0539 55.5842 87.4633 55.5842Z" fill="#8643DC"/>
  <path d="M83.7572 58.3569C84.1666 58.3569 84.4984 58.1086 84.4984 57.8023C84.4984 57.4961 84.1666 57.2478 83.7572 57.2478C83.3479 57.2478 83.016 57.4961 83.016 57.8023C83.016 58.1086 83.3479 58.3569 83.7572 58.3569Z" fill="#8643DC"/>
  <path d="M79.8657 61.1296C80.2751 61.1296 80.607 60.8813 80.607 60.575C80.607 60.2688 80.2751 60.0205 79.8657 60.0205C79.4564 60.0205 79.1245 60.2688 79.1245 60.575C79.1245 60.8813 79.4564 61.1296 79.8657 61.1296Z" fill="#8643DC"/>
  <path d="M76.1597 63.9023C76.5691 63.9023 76.901 63.654 76.901 63.3477C76.901 63.0415 76.5691 62.7932 76.1597 62.7932C75.7504 62.7932 75.4185 63.0415 75.4185 63.3477C75.4185 63.654 75.7504 63.9023 76.1597 63.9023Z" fill="#8643DC"/>
  <path d="M72.2683 66.675C72.6777 66.675 73.0095 66.4267 73.0095 66.1204C73.0095 65.8142 72.6777 65.5659 72.2683 65.5659C71.8589 65.5659 71.527 65.8142 71.527 66.1204C71.527 66.4267 71.8589 66.675 72.2683 66.675Z" fill="#8643DC"/>
  <path d="M68.5622 69.4474C68.9716 69.4474 69.3034 69.1992 69.3034 68.8929C69.3034 68.5866 68.9716 68.3384 68.5622 68.3384C68.1529 68.3384 67.821 68.5866 67.821 68.8929C67.821 69.1992 68.1529 69.4474 68.5622 69.4474Z" fill="#8643DC"/>
  <path d="M64.6709 72.2201C65.0802 72.2201 65.4121 71.9719 65.4121 71.6656C65.4121 71.3594 65.0802 71.1111 64.6709 71.1111C64.2615 71.1111 63.9297 71.3594 63.9297 71.6656C63.9297 71.9719 64.2615 72.2201 64.6709 72.2201Z" fill="#8643DC"/>
  <path d="M60.9648 74.9928C61.3742 74.9928 61.706 74.7446 61.706 74.4383C61.706 74.1321 61.3742 73.8838 60.9648 73.8838C60.5554 73.8838 60.2236 74.1321 60.2236 74.4383C60.2236 74.7446 60.5554 74.9928 60.9648 74.9928Z" fill="#8643DC"/>
  <path d="M57.0735 77.9042C57.4829 77.9042 57.8147 77.656 57.8147 77.3497C57.8147 77.0434 57.4829 76.7952 57.0735 76.7952C56.6642 76.7952 56.3323 77.0434 56.3323 77.3497C56.3323 77.656 56.6642 77.9042 57.0735 77.9042Z" fill="#8643DC"/>
  <path d="M53.3674 80.6769C53.7768 80.6769 54.1086 80.4287 54.1086 80.1224C54.1086 79.8161 53.7768 79.5679 53.3674 79.5679C52.9581 79.5679 52.6262 79.8161 52.6262 80.1224C52.6262 80.4287 52.9581 80.6769 53.3674 80.6769Z" fill="#8643DC"/>
  <path d="M110.997 45.0478C111.406 45.0478 111.738 44.7995 111.738 44.4933C111.738 44.187 111.406 43.9387 110.997 43.9387C110.588 43.9387 110.256 44.187 110.256 44.4933C110.256 44.7995 110.588 45.0478 110.997 45.0478Z" fill="#8643DC"/>
  <path d="M107.106 47.8205C107.515 47.8205 107.847 47.5722 107.847 47.266C107.847 46.9597 107.515 46.7114 107.106 46.7114C106.696 46.7114 106.364 46.9597 106.364 47.266C106.364 47.5722 106.696 47.8205 107.106 47.8205Z" fill="#8643DC"/>
  <path d="M103.399 50.5932C103.809 50.5932 104.141 50.3449 104.141 50.0387C104.141 49.7324 103.809 49.4841 103.399 49.4841C102.99 49.4841 102.658 49.7324 102.658 50.0387C102.658 50.3449 102.99 50.5932 103.399 50.5932Z" fill="#8643DC"/>
  <path d="M99.508 53.3659C99.9173 53.3659 100.249 53.1176 100.249 52.8114C100.249 52.5051 99.9173 52.2568 99.508 52.2568C99.0986 52.2568 98.7668 52.5051 98.7668 52.8114C98.7668 53.1176 99.0986 53.3659 99.508 53.3659Z" fill="#8643DC"/>
  <path d="M95.8019 56.1386C96.2113 56.1386 96.5431 55.8903 96.5431 55.5841C96.5431 55.2778 96.2113 55.0295 95.8019 55.0295C95.3925 55.0295 95.0607 55.2778 95.0607 55.5841C95.0607 55.8903 95.3925 56.1386 95.8019 56.1386Z" fill="#8643DC"/>
  <path d="M91.9106 58.9113C92.32 58.9113 92.6519 58.663 92.6519 58.3568C92.6519 58.0505 92.32 57.8022 91.9106 57.8022C91.5013 57.8022 91.1694 58.0505 91.1694 58.3568C91.1694 58.663 91.5013 58.9113 91.9106 58.9113Z" fill="#8643DC"/>
  <path d="M88.0194 61.684C88.4288 61.684 88.7606 61.4357 88.7606 61.1295C88.7606 60.8232 88.4288 60.575 88.0194 60.575C87.61 60.575 87.2781 60.8232 87.2781 61.1295C87.2781 61.4357 87.61 61.684 88.0194 61.684Z" fill="#8643DC"/>
  <path d="M84.3132 64.4567C84.7226 64.4567 85.0544 64.2084 85.0544 63.9022C85.0544 63.5959 84.7226 63.3477 84.3132 63.3477C83.9038 63.3477 83.5719 63.5959 83.5719 63.9022C83.5719 64.2084 83.9038 64.4567 84.3132 64.4567Z" fill="#8643DC"/>
  <path d="M80.4219 67.2294C80.8312 67.2294 81.1631 66.9812 81.1631 66.6749C81.1631 66.3686 80.8312 66.1204 80.4219 66.1204C80.0125 66.1204 79.6807 66.3686 79.6807 66.6749C79.6807 66.9812 80.0125 67.2294 80.4219 67.2294Z" fill="#8643DC"/>
  <path d="M76.7158 70.0019C77.1251 70.0019 77.457 69.7536 77.457 69.4474C77.457 69.1411 77.1251 68.8928 76.7158 68.8928C76.3064 68.8928 75.9746 69.1411 75.9746 69.4474C75.9746 69.7536 76.3064 70.0019 76.7158 70.0019Z" fill="#8643DC"/>
  <path d="M72.8244 72.7746C73.2337 72.7746 73.5656 72.5263 73.5656 72.2201C73.5656 71.9138 73.2337 71.6655 72.8244 71.6655C72.415 71.6655 72.0832 71.9138 72.0832 72.2201C72.0832 72.5263 72.415 72.7746 72.8244 72.7746Z" fill="#8643DC"/>
  <path d="M69.1183 75.686C69.5277 75.686 69.8595 75.4377 69.8595 75.1314C69.8595 74.8252 69.5277 74.5769 69.1183 74.5769C68.7089 74.5769 68.3771 74.8252 68.3771 75.1314C68.3771 75.4377 68.7089 75.686 69.1183 75.686Z" fill="#8643DC"/>
  <path d="M65.2268 78.4587C65.6362 78.4587 65.968 78.2104 65.968 77.9041C65.968 77.5979 65.6362 77.3496 65.2268 77.3496C64.8174 77.3496 64.4856 77.5979 64.4856 77.9041C64.4856 78.2104 64.8174 78.4587 65.2268 78.4587Z" fill="#8643DC"/>
  <path d="M61.5208 81.2314C61.9302 81.2314 62.262 80.9831 62.262 80.6768C62.262 80.3706 61.9302 80.1223 61.5208 80.1223C61.1115 80.1223 60.7796 80.3706 60.7796 80.6768C60.7796 80.9831 61.1115 81.2314 61.5208 81.2314Z" fill="#8643DC"/>
  <path d="M57.6294 84.0041C58.0388 84.0041 58.3707 83.7558 58.3707 83.4495C58.3707 83.1433 58.0388 82.895 57.6294 82.895C57.2201 82.895 56.8882 83.1433 56.8882 83.4495C56.8882 83.7558 57.2201 84.0041 57.6294 84.0041Z" fill="#8643DC"/>
  <path d="M115.259 48.375C115.668 48.375 116 48.1267 116 47.8204C116 47.5141 115.668 47.2659 115.259 47.2659C114.85 47.2659 114.518 47.5141 114.518 47.8204C114.518 48.1267 114.85 48.375 115.259 48.375Z" fill="#8643DC"/>
  <path d="M111.553 51.1477C111.962 51.1477 112.294 50.8994 112.294 50.5931C112.294 50.2868 111.962 50.0386 111.553 50.0386C111.143 50.0386 110.812 50.2868 110.812 50.5931C110.812 50.8994 111.143 51.1477 111.553 51.1477Z" fill="#8643DC"/>
  <path d="M107.661 53.9204C108.071 53.9204 108.403 53.6721 108.403 53.3658C108.403 53.0595 108.071 52.8113 107.661 52.8113C107.252 52.8113 106.92 53.0595 106.92 53.3658C106.92 53.6721 107.252 53.9204 107.661 53.9204Z" fill="#8643DC"/>
  <path d="M103.955 56.6931C104.365 56.6931 104.697 56.4448 104.697 56.1385C104.697 55.8323 104.365 55.584 103.955 55.584C103.546 55.584 103.214 55.8323 103.214 56.1385C103.214 56.4448 103.546 56.6931 103.955 56.6931Z" fill="#8643DC"/>
  <path d="M100.064 59.4658C100.473 59.4658 100.805 59.2175 100.805 58.9112C100.805 58.605 100.473 58.3567 100.064 58.3567C99.6546 58.3567 99.3227 58.605 99.3227 58.9112C99.3227 59.2175 99.6546 59.4658 100.064 59.4658Z" fill="#8643DC"/>
  <path d="M96.3579 62.2385C96.7672 62.2385 97.0991 61.9902 97.0991 61.6839C97.0991 61.3777 96.7672 61.1294 96.3579 61.1294C95.9485 61.1294 95.6166 61.3777 95.6166 61.6839C95.6166 61.9902 95.9485 62.2385 96.3579 62.2385Z" fill="#8643DC"/>
  <path d="M92.4665 65.0112C92.8759 65.0112 93.2077 64.7629 93.2077 64.4566C93.2077 64.1504 92.8759 63.9021 92.4665 63.9021C92.0572 63.9021 91.7253 64.1504 91.7253 64.4566C91.7253 64.7629 92.0572 65.0112 92.4665 65.0112Z" fill="#8643DC"/>
  <path d="M88.7605 67.7839C89.1698 67.7839 89.5017 67.5356 89.5017 67.2293C89.5017 66.9231 89.1698 66.6748 88.7605 66.6748C88.3511 66.6748 88.0193 66.9231 88.0193 67.2293C88.0193 67.5356 88.3511 67.7839 88.7605 67.7839Z" fill="#8643DC"/>
  <path d="M84.8691 70.5566C85.2784 70.5566 85.6103 70.3083 85.6103 70.002C85.6103 69.6958 85.2784 69.4475 84.8691 69.4475C84.4597 69.4475 84.1279 69.6958 84.1279 70.002C84.1279 70.3083 84.4597 70.5566 84.8691 70.5566Z" fill="#8643DC"/>
  <path d="M81.163 73.4677C81.5723 73.4677 81.9042 73.2194 81.9042 72.9132C81.9042 72.6069 81.5723 72.3586 81.163 72.3586C80.7536 72.3586 80.4218 72.6069 80.4218 72.9132C80.4218 73.2194 80.7536 73.4677 81.163 73.4677Z" fill="#8643DC"/>
  <path d="M77.2716 76.2404C77.681 76.2404 78.0128 75.9921 78.0128 75.6859C78.0128 75.3796 77.681 75.1313 77.2716 75.1313C76.8622 75.1313 76.5304 75.3796 76.5304 75.6859C76.5304 75.9921 76.8622 76.2404 77.2716 76.2404Z" fill="#8643DC"/>
  <path d="M73.3803 79.0131C73.7897 79.0131 74.1216 78.7648 74.1216 78.4586C74.1216 78.1523 73.7897 77.9041 73.3803 77.9041C72.971 77.9041 72.6391 78.1523 72.6391 78.4586C72.6391 78.7648 72.971 79.0131 73.3803 79.0131Z" fill="#8643DC"/>
  <path d="M69.6742 81.7858C70.0836 81.7858 70.4155 81.5376 70.4155 81.2313C70.4155 80.925 70.0836 80.6768 69.6742 80.6768C69.2649 80.6768 68.933 80.925 68.933 81.2313C68.933 81.5376 69.2649 81.7858 69.6742 81.7858Z" fill="#8643DC"/>
  <path d="M65.7828 84.5585C66.1921 84.5585 66.524 84.3103 66.524 84.004C66.524 83.6977 66.1921 83.4495 65.7828 83.4495C65.3734 83.4495 65.0415 83.6977 65.0415 84.004C65.0415 84.3103 65.3734 84.5585 65.7828 84.5585Z" fill="#8643DC"/>
  <path d="M62.0767 87.3312C62.4861 87.3312 62.8179 87.083 62.8179 86.7767C62.8179 86.4704 62.4861 86.2222 62.0767 86.2222C61.6673 86.2222 61.3354 86.4704 61.3354 86.7767C61.3354 87.083 61.6673 87.3312 62.0767 87.3312Z" fill="#8643DC"/>
</svg>