<svg xmlns="http://www.w3.org/2000/svg" xmlns:xlink="http://www.w3.org/1999/xlink" viewBox="0,0,256,256" width="80px" height="80px"><g fill="currentColor" fill-rule="nonzero" stroke="none" stroke-width="1" stroke-linecap="butt" stroke-linejoin="miter" stroke-miterlimit="10" stroke-dasharray="" stroke-dashoffset="0" font-family="none" font-weight="none" font-size="none" text-anchor="none" style="mix-blend-mode: normal"><g transform="scale(3.2,3.2)"><path d="M29.5,4c-6.89149,0 -12.5,5.60851 -12.5,12.5c0,5.15849 3.14449,9.59334 7.61523,11.5c-4.47075,1.90666 -7.61523,6.34151 -7.61523,11.5c0,5.0771 3.06923,9.41824 7.42773,11.37305c-4.91018,1.85894 -8.42773,6.57399 -8.42773,12.12695c0,7.16752 5.83248,13 13,13c7.16752,0 13,-5.83248 13,-13v-12v-10.39453c0.06039,6.28807 5.17648,11.39453 11.47852,11.39453c6.33943,0 11.5,-5.16057 11.5,-11.5c0,-6.33943 -5.16057,-11.5 -11.5,-11.5c-6.30203,0 -11.41812,5.10647 -11.47852,11.39453v-11.39453h10.5c6.89149,0 12.5,-5.60851 12.5,-12.5c0,-6.89149 -5.60851,-12.5 -12.5,-12.5h-11.5zM29.5,6h10.5v21h-10.5c-5.81051,0 -10.5,-4.68949 -10.5,-10.5c0,-5.81051 4.68949,-10.5 10.5,-10.5zM42,6h10.5c5.81051,0 10.5,4.68949 10.5,10.5c0,5.81051 -4.68949,10.5 -10.5,10.5h-10.5zM50.21094,9c-0.55,0 -1,0.45 -1,1c0,0.55 0.45,1 1,1c0.55,0 1,-0.45 1,-1c0,-0.55 -0.45,-1 -1,-1zM45.90234,9.00391c-0.0975,0.01013 -0.1932,0.03617 -0.2832,0.07617c-0.12,0.05 -0.23008,0.11898 -0.33008,0.20898c-0.18,0.189 -0.28906,0.45094 -0.28906,0.71094c0,0.13 0.03008,0.26086 0.08008,0.38086c0.05,0.12 0.11899,0.22908 0.20898,0.33008c0.1,0.09 0.21008,0.15898 0.33008,0.20898c0.12,0.05 0.25086,0.08008 0.38086,0.08008c0.13,0 0.26086,-0.03008 0.38086,-0.08008c0.12,-0.05 0.23008,-0.11899 0.33008,-0.20898c0.19,-0.19 0.28906,-0.44094 0.28906,-0.71094c0,-0.26 -0.10906,-0.52098 -0.28906,-0.70898c-0.05,-0.04 -0.10039,-0.08914 -0.15039,-0.11914c-0.06,-0.04 -0.11969,-0.0718 -0.17969,-0.0918c-0.06,-0.031 -0.12164,-0.04955 -0.18164,-0.06055c-0.1,-0.0205 -0.19937,-0.02575 -0.29687,-0.01562zM54.24609,9.27148c-0.38578,0.04195 -0.7257,0.31028 -0.8457,0.70703c-0.16,0.53 0.13992,1.09 0.66992,1.25c0.1,0.031 0.1893,0.04201 0.2793,0.04101c0.44,0 0.83094,-0.27994 0.96094,-0.71094c0.16,-0.529 -0.13992,-1.09 -0.66992,-1.25c-0.1325,-0.04 -0.26594,-0.05109 -0.39453,-0.03711zM57.86133,11.63281c-0.25375,-0.03763 -0.52219,0.023 -0.74219,0.1875c-0.44,0.33 -0.53898,0.96139 -0.20898,1.40039c0.2,0.259 0.50055,0.39844 0.81055,0.39844c0.2,0 0.40984,-0.05945 0.58984,-0.18945c0.45,-0.33 0.53898,-0.95944 0.20898,-1.39844c-0.165,-0.225 -0.40445,-0.36081 -0.6582,-0.39844zM59,15.51953c-0.55,0 -1,0.44 -1,1c0,0.549 0.44,1 1,1c0.55,0 1,-0.45 1,-1c0,-0.55 -0.44,-1 -1,-1zM29.5,29h10.5v21h-10.5c-5.81051,0 -10.5,-4.68949 -10.5,-10.5c0,-5.81051 4.68949,-10.5 10.5,-10.5zM53.47852,31c5.25855,0 9.5,4.24145 9.5,9.5c0,5.25855 -4.24145,9.5 -9.5,9.5c-5.25855,0 -9.5,-4.24145 -9.5,-9.5c0,-5.25855 4.24145,-9.5 9.5,-9.5zM56.91797,35.28711c-0.25625,0.02362 -0.50274,0.14352 -0.67773,0.35352c-0.35,0.42 -0.30109,1.05016 0.12891,1.41016c0.18,0.15 0.41063,0.22852 0.64063,0.22852c0.28,0 0.56977,-0.11937 0.75977,-0.35937c0.36,-0.42 0.30086,-1.05016 -0.11914,-1.41016c-0.21,-0.1745 -0.47617,-0.24628 -0.73242,-0.22266zM58.7207,38.55078c-0.55,0.09 -0.91055,0.61016 -0.81055,1.16016c0.08,0.479 0.51047,0.81931 0.98047,0.82031c0.06,0 0.11969,-0.01148 0.17969,-0.02148c0.54,-0.089 0.90055,-0.61039 0.81055,-1.15039c-0.1,-0.55 -0.62016,-0.90859 -1.16016,-0.80859zM58.37305,42.23633c-0.38672,-0.04617 -0.77992,0.13489 -0.98242,0.49414c-0.28,0.48 -0.11062,1.08914 0.35938,1.36914c0.16,0.089 0.33,0.12986 0.5,0.13086c0.35,0 0.67914,-0.18 0.86914,-0.5c0.27,-0.479 0.11086,-1.09109 -0.36914,-1.37109c-0.12,-0.0675 -0.24805,-0.10766 -0.37695,-0.12305zM55.43359,44.66016c-0.12953,-0.00583 -0.26453,0.0133 -0.39453,0.06055c-0.52,0.19 -0.77984,0.76906 -0.58984,1.28906c0.15,0.4 0.53141,0.64939 0.94141,0.65039c0.11,0 0.22984,-0.02055 0.33984,-0.06055c0.52,-0.2 0.78984,-0.76806 0.58984,-1.28906c-0.1425,-0.39 -0.49812,-0.63291 -0.88672,-0.65039zM51.57617,44.68164c-0.39094,0.02255 -0.75172,0.27797 -0.88672,0.66797c-0.19,0.521 0.07961,1.08853 0.59961,1.26953c0.11,0.04 0.2318,0.06155 0.3418,0.06055c0.41,0 0.79945,-0.25016 0.93945,-0.66016c0.19,-0.519 -0.08961,-1.0903 -0.59961,-1.2793c-0.13,-0.04775 -0.26422,-0.06611 -0.39453,-0.05859zM29,52h0.5h10.5v11c0,6.08648 -4.91352,11 -11,11c-6.08648,0 -11,-4.91352 -11,-11c0,-6.08648 4.91352,-11 11,-11zM36,55.01172c-0.26,0 -0.52094,0.09234 -0.71094,0.27734c-0.18,0.189 -0.28906,0.45094 -0.28906,0.71094c0,0.27 0.09906,0.52094 0.28906,0.71094c0.19,0.189 0.44094,0.28906 0.71094,0.28906c0.27,0 0.52094,-0.10006 0.71094,-0.28906c0.19,-0.19 0.28906,-0.44094 0.28906,-0.71094c0,-0.26 -0.10906,-0.52194 -0.28906,-0.71094c-0.19,-0.185 -0.45094,-0.27734 -0.71094,-0.27734zM36,58.9707c-0.55,0 -1,0.45 -1,1c0,0.55 0.45,1 1,1c0.55,0 1,-0.45 1,-1c0,-0.55 -0.45,-1 -1,-1zM36.07031,62.89063c-0.55,-0.071 -1.05109,0.31938 -1.12109,0.85938c-0.07,0.55 0.32109,1.04914 0.87109,1.11914c0.04,0.01 0.07891,0.01172 0.12891,0.01172c0.49,0 0.92023,-0.37109 0.99023,-0.87109c0.07,-0.55 -0.31914,-1.04914 -0.86914,-1.11914zM34.32422,66.42773c-0.25375,0.025 -0.49883,0.14583 -0.67383,0.36133c-0.35,0.43 -0.29133,1.05916 0.13867,1.41016c0.18,0.15 0.41086,0.2217 0.63086,0.2207c0.29,0 0.57953,-0.12133 0.76953,-0.36133c0.35,-0.43 0.29133,-1.05916 -0.13867,-1.41016c-0.21,-0.1745 -0.47281,-0.2457 -0.72656,-0.2207zM24.03516,66.92188c-0.255,-0.00262 -0.51008,0.09356 -0.70508,0.28906c-0.4,0.39 -0.39977,1.02992 -0.00977,1.41992c0.2,0.2 0.44899,0.29883 0.70898,0.29883c0.26,0 0.51094,-0.09906 0.71094,-0.28906c0.39,-0.39 0.39,-1.02992 0,-1.41992c-0.195,-0.195 -0.45008,-0.2962 -0.70508,-0.29883zM31.32227,68.62695c-0.12937,-0.0093 -0.26258,0.00773 -0.39258,0.05273c-0.52,0.18 -0.79891,0.74853 -0.62891,1.26953c0.15,0.42 0.53922,0.68164 0.94922,0.68164c0.11,0 0.22031,-0.0225 0.32031,-0.0625c0.53,-0.17 0.80891,-0.73877 0.62891,-1.25977c-0.135,-0.39675 -0.48883,-0.65375 -0.87695,-0.68164zM27.22656,68.82617c-0.38156,0.06609 -0.70914,0.35867 -0.80664,0.76367c-0.12,0.53 0.21,1.06922 0.75,1.19922c0.07,0.01 0.15047,0.02148 0.23047,0.02148c0.45,0 0.85875,-0.31149 0.96875,-0.77148c0.12,-0.53 -0.21,-1.06922 -0.75,-1.19922c-0.1325,-0.0325 -0.26539,-0.0357 -0.39258,-0.01367z"></path></g></g></svg>