<svg width="30" height="30" viewBox="0 0 30 30" fill="none" xmlns="http://www.w3.org/2000/svg">
<path d="M0 15C0 6.71573 6.71573 0 15 0H30V15C30 23.2843 23.2843 30 15 30V30C6.71573 30 0 23.2843 0 15V15Z" fill="#8643DC"/>
<path d="M12 10C12 4.47715 16.4772 0 22 0H30V7.25C30 12.7728 25.5228 17.25 20 17.25H12V10Z" fill="#FF59C1"/>
<path d="M11.27 21.18C10.46 21.18 9.705 21.05 9.005 20.79C8.315 20.52 7.715 20.14 7.205 19.65C6.695 19.16 6.295 18.585 6.005 17.925C5.725 17.265 5.585 16.54 5.585 15.75C5.585 14.96 5.725 14.235 6.005 13.575C6.295 12.915 6.695 12.34 7.205 11.85C7.725 11.36 8.33 10.985 9.02 10.725C9.71 10.455 10.465 10.32 11.285 10.32C12.195 10.32 13.015 10.48 13.745 10.8C14.485 11.11 15.105 11.57 15.605 12.18L14.045 13.62C13.685 13.21 13.285 12.905 12.845 12.705C12.405 12.495 11.925 12.39 11.405 12.39C10.915 12.39 10.465 12.47 10.055 12.63C9.645 12.79 9.29 13.02 8.99 13.32C8.69 13.62 8.455 13.975 8.285 14.385C8.125 14.795 8.045 15.25 8.045 15.75C8.045 16.25 8.125 16.705 8.285 17.115C8.455 17.525 8.69 17.88 8.99 18.18C9.29 18.48 9.645 18.71 10.055 18.87C10.465 19.03 10.915 19.11 11.405 19.11C11.925 19.11 12.405 19.01 12.845 18.81C13.285 18.6 13.685 18.285 14.045 17.865L15.605 19.305C15.105 19.915 14.485 20.38 13.745 20.7C13.015 21.02 12.19 21.18 11.27 21.18ZM17.246 21V10.5H19.676V19.02H24.941V21H17.246Z" fill="white"/>
</svg>
