<svg width="40" height="40" viewBox="0 0 40 40" fill="none" xmlns="http://www.w3.org/2000/svg">
<path d="M0 20C0 8.95431 8.95431 0 20 0H40V20C40 31.0457 31.0457 40 20 40V40C8.95431 40 0 31.0457 0 20V20Z" fill="#8643DC"/>
<path d="M16 10C16 4.47715 20.4772 0 26 0H40V13C40 18.5228 35.5228 23 30 23H16V10Z" fill="#FF59C1"/>
<path d="M13.614 28.276C12.372 28.276 11.2143 28.0767 10.141 27.678C9.083 27.264 8.163 26.6813 7.381 25.93C6.599 25.1787 5.98567 24.297 5.541 23.285C5.11167 22.273 4.897 21.1613 4.897 19.95C4.897 18.7387 5.11167 17.627 5.541 16.615C5.98567 15.603 6.599 14.7213 7.381 13.97C8.17833 13.2187 9.106 12.6437 10.164 12.245C11.222 11.831 12.3797 11.624 13.637 11.624C15.0323 11.624 16.2897 11.8693 17.409 12.36C18.5437 12.8353 19.4943 13.5407 20.261 14.476L17.869 16.684C17.317 16.0553 16.7037 15.5877 16.029 15.281C15.3543 14.959 14.6183 14.798 13.821 14.798C13.0697 14.798 12.3797 14.9207 11.751 15.166C11.1223 15.4113 10.578 15.764 10.118 16.224C9.658 16.684 9.29767 17.2283 9.037 17.857C8.79167 18.4857 8.669 19.1833 8.669 19.95C8.669 20.7167 8.79167 21.4143 9.037 22.043C9.29767 22.6717 9.658 23.216 10.118 23.676C10.578 24.136 11.1223 24.4887 11.751 24.734C12.3797 24.9793 13.0697 25.102 13.821 25.102C14.6183 25.102 15.3543 24.9487 16.029 24.642C16.7037 24.32 17.317 23.837 17.869 23.193L20.261 25.401C19.4943 26.3363 18.5437 27.0493 17.409 27.54C16.2897 28.0307 15.0247 28.276 13.614 28.276ZM22.7772 28V11.9H26.5032V24.964H34.5762V28H22.7772Z" fill="white"/>
</svg>
