<svg xmlns="http://www.w3.org/2000/svg" xmlns:xlink="http://www.w3.org/1999/xlink" viewBox="0,0,256,256" width="64px" height="64px"><g fill="currentColor" fill-rule="nonzero" stroke="none" stroke-width="1" stroke-linecap="butt" stroke-linejoin="miter" stroke-miterlimit="10" stroke-dasharray="" stroke-dashoffset="0" font-family="none" font-weight="none" font-size="none" text-anchor="none" style="mix-blend-mode: normal"><g transform="scale(4,4)"><path d="M9,6c-1.65234,0 -3,1.34766 -3,3v46c0,1.65234 1.34766,3 3,3h46c1.65234,0 3,-1.34766 3,-3v-46c0,-1.65234 -1.34766,-3 -3,-3zM9,8h46c0.55078,0 1,0.44922 1,1v46c0,0.55078 -0.44922,1 -1,1h-46c-0.55078,0 -1,-0.44922 -1,-1v-46c0,-0.55078 0.44922,-1 1,-1zM14,12c-1.10156,0 -2,0.89844 -2,2v36c0,1.10156 0.89844,2 2,2h3c0.55078,0 1,-0.44531 1,-1c0,-0.55469 -0.44922,-1 -1,-1h-3v-36h36v36h-3c-0.55078,0 -1,0.44531 -1,1c0,0.55469 0.44922,1 1,1h3c1.10156,0 2,-0.89844 2,-2v-36c0,-1.10156 -0.89844,-2 -2,-2zM23,22c-0.55078,0 -1,0.44531 -1,1v18c0,0.55469 0.44922,1 1,1c0.55078,0 1,-0.44531 1,-1v-7h3c2.75781,0 5,-2.24219 5,-5v-2c0,-2.75781 -2.24219,-5 -5,-5zM24,24h3c1.65234,0 3,1.34766 3,3v2c0,1.65234 -1.34766,3 -3,3h-3zM37.83984,28c-2.11719,0 -3.83984,1.72266 -3.83984,3.83984c0,1.72266 1.09766,3.24609 2.73438,3.79297l1.89844,0.63281c0.81641,0.27344 1.36719,1.03516 1.36719,1.89453c0,1.01563 -0.82422,1.83984 -1.83984,1.83984h-0.32031c-0.55859,0 -1.07812,-0.24609 -1.42969,-0.67578c-0.34766,-0.42969 -0.97656,-0.49219 -1.40625,-0.14844c-0.42578,0.35156 -0.49219,0.98047 -0.14453,1.41016c0.73438,0.89844 1.82031,1.41406 2.98047,1.41406h0.32031c2.11719,0 3.83984,-1.72266 3.83984,-3.83984c0,-1.72266 -1.09766,-3.24609 -2.73437,-3.79297l-1.89844,-0.63281c-0.81641,-0.27344 -1.36719,-1.03516 -1.36719,-1.89453c0,-1.01562 0.82422,-1.83984 1.83984,-1.83984h0.32031c0.5625,0 1.08594,0.25 1.4375,0.6875c0.34375,0.43359 0.97266,0.50391 1.40625,0.15625c0.42969,-0.34375 0.5,-0.97266 0.15625,-1.40625c-0.73437,-0.91406 -1.82422,-1.4375 -3,-1.4375zM22,48c-0.55078,0 -1,0.44531 -1,1v2c0,0.55469 0.44922,1 1,1c0.55078,0 1,-0.44531 1,-1v-2c0,-0.55469 -0.44922,-1 -1,-1zM27,48c-0.55078,0 -1,0.44531 -1,1v2c0,0.55469 0.44922,1 1,1c0.55078,0 1,-0.44531 1,-1v-2c0,-0.55469 -0.44922,-1 -1,-1zM32,48c-0.55078,0 -1,0.44531 -1,1v2c0,0.55469 0.44922,1 1,1c0.55078,0 1,-0.44531 1,-1v-2c0,-0.55469 -0.44922,-1 -1,-1zM37,48c-0.55078,0 -1,0.44531 -1,1v2c0,0.55469 0.44922,1 1,1c0.55078,0 1,-0.44531 1,-1v-2c0,-0.55469 -0.44922,-1 -1,-1zM42,48c-0.55078,0 -1,0.44531 -1,1v2c0,0.55469 0.44922,1 1,1c0.55078,0 1,-0.44531 1,-1v-2c0,-0.55469 -0.44922,-1 -1,-1z"></path></g></g></svg>