<svg xmlns="http://www.w3.org/2000/svg" width="63" height="34" viewBox="0 0 63 34" fill="none">
<path d="M9.10001 33.3187C7.70001 33.3187 6.30001 32.7201 5.10001 32.1964C3.20001 31.4483 2 30.9994 1 31.4483L0 30.3261C2 29.3535 4.09999 30.2513 5.89999 30.9994C7.79999 31.7475 9 32.1964 10 31.7475C11 31.2238 11 30.2513 10.7 28.6802C10.5 27.109 10.3 25.3135 12.2 24.3409C14.2 23.3683 16.3 24.2661 18.1 25.0142C20 25.7624 21.2 26.2113 22.2 25.7624C23.2 25.2387 23.2 24.2661 22.9 22.695C22.7 21.1239 22.5 19.3283 24.4 18.3557C26.4 17.3831 28.5 18.2809 30.3 19.029C32.2 19.7772 33.4 20.2261 34.4 19.7772C35.4 19.2535 35.4 18.2809 35.1 16.7098C34.9 15.1387 34.7 13.3431 36.6 12.3705C38.6 11.3979 40.7 12.2957 42.5 13.0438C44.4 13.792 45.6 14.2409 46.6 13.792C47.6 13.2683 47.6 12.2957 47.3 10.7246C47.1 9.15349 46.9 7.35792 48.8 6.38533C50.8 5.41274 52.9 6.31051 54.7 7.05866C56.6 7.80681 57.8 8.2557 58.8 7.80681C59.8 7.2831 59.8 6.31053 59.6 4.73942C59.4 3.16831 59.2 1.37274 61.1 0.400146L62.1 1.52237C61.1 2.04607 61.1 3.01867 61.3 4.58978C61.5 6.16089 61.7 7.95644 59.8 8.92903C57.8 9.90162 55.7 9.00385 53.9 8.2557C52 7.50755 50.8 7.05866 49.8 7.50755C48.8 8.03126 48.8 9.00385 49.1 10.575C49.3 12.1461 49.5 13.9416 47.6 14.9142C45.6 15.8868 43.5 14.989 41.7 14.2409C39.8 13.4927 38.6 13.0438 37.6 13.4927C36.6 14.0164 36.6 14.989 36.9 16.5602C37.1 18.1313 37.3 19.9268 35.4 20.8994C33.4 21.872 31.3 20.9742 29.5 20.2261C27.6 19.4779 26.4 19.029 25.4 19.4779C24.4 20.0016 24.4 20.9742 24.7 22.5453C24.9 24.1164 25.1 25.912 23.2 26.8846C21.2 27.8572 19.1 26.9594 17.3 26.2113C15.4 25.4631 14.2 25.0142 13.2 25.4631C12.2 25.9868 12.2 26.9594 12.5 28.5305C12.7 30.1016 12.9 31.8972 11 32.8698C10.3 33.169 9.70001 33.3187 9.10001 33.3187Z" fill="currentColor"/>
</svg>